<svg width="16" height="16" viewBox="0 0 16 16" fill="none" xmlns="http://www.w3.org/2000/svg">
<path fill-rule="evenodd" clip-rule="evenodd" d="M3.60641 1.22727C2.94584 0.737031 2.00834 0.791397 1.40918 1.39043C0.750098 2.04938 0.749987 3.11784 1.40893 3.77692L5.61056 7.97943L1.41361 12.1764L1.25021 12.3657C0.760042 13.0263 0.814505 13.9638 1.41361 14.5629C2.07262 15.2219 3.14108 15.2219 3.80009 14.5629L7.9968 10.3662L12.1999 14.5702L12.3892 14.7336C13.0498 15.2238 13.9872 15.1695 14.5864 14.5704C15.2455 13.9115 15.2456 12.843 14.5867 12.1839L10.3833 7.97968L14.5821 3.78087L14.7455 3.59161C15.2357 2.93098 15.1812 1.99349 14.5821 1.39439C13.9231 0.735377 12.8546 0.735377 12.1956 1.39439L7.99705 5.59294L3.79566 1.39068L3.60641 1.22727Z" fill="#8A8A8A"/>
</svg>
