<svg width="28" height="31" viewBox="0 0 28 31" fill="none" xmlns="http://www.w3.org/2000/svg">
<path fill-rule="evenodd" clip-rule="evenodd" d="M26.343 9.11772L25.4353 7.54259C24.6674 6.20978 22.9656 5.75 21.631 6.51474V6.51474C20.9957 6.88899 20.2376 6.99517 19.5239 6.80987C18.8103 6.62456 18.1996 6.16299 17.8266 5.52695C17.5867 5.12267 17.4577 4.66219 17.4529 4.19209V4.19209C17.4745 3.4384 17.1902 2.70804 16.6646 2.16738C16.139 1.62673 15.417 1.32183 14.663 1.32214H12.8343C12.0956 1.32214 11.3873 1.61649 10.8662 2.14008C10.3451 2.66366 10.0542 3.37331 10.0577 4.112V4.112C10.0359 5.63713 8.79318 6.86196 7.26789 6.86181C6.79779 6.85693 6.33731 6.72799 5.93303 6.48805V6.48805C4.5984 5.7233 2.8966 6.18309 2.12868 7.51589L1.15423 9.11772C0.387244 10.4489 0.840771 12.1496 2.16873 12.9221V12.9221C3.03192 13.4204 3.56367 14.3414 3.56367 15.3382C3.56367 16.3349 3.03192 17.2559 2.16873 17.7543V17.7543C0.842458 18.5215 0.388436 20.2181 1.15423 21.5453V21.5453L2.07529 23.1337C2.43509 23.783 3.03878 24.262 3.75276 24.465C4.46675 24.6679 5.23216 24.5779 5.87964 24.215V24.215C6.51614 23.8436 7.27463 23.7418 7.98652 23.9323C8.6984 24.1228 9.3047 24.5898 9.67064 25.2295C9.91058 25.6337 10.0395 26.0942 10.0444 26.5643V26.5643C10.0444 28.1051 11.2935 29.3542 12.8343 29.3542H14.663C16.1986 29.3542 17.4455 28.1133 17.4529 26.5777V26.5777C17.4493 25.8367 17.7421 25.125 18.2661 24.601C18.79 24.077 19.5017 23.7842 20.2427 23.7878C20.7117 23.8004 21.1703 23.9288 21.5776 24.1616V24.1616C22.9087 24.9286 24.6094 24.475 25.3819 23.1471V23.1471L26.343 21.5453C26.715 20.9067 26.8171 20.1462 26.6267 19.4322C26.4363 18.7181 25.9691 18.1094 25.3285 17.7409V17.7409C24.688 17.3724 24.2207 16.7637 24.0303 16.0497C23.8399 15.3356 23.942 14.5751 24.314 13.9366C24.556 13.5142 24.9062 13.164 25.3285 12.9221V12.9221C26.6485 12.15 27.101 10.4592 26.343 9.13107V9.13107V9.11772Z" stroke="#8A8A8A" stroke-width="1.5" stroke-linecap="round" stroke-linejoin="round"/>
</svg>
