<svg width="31" height="31" viewBox="0 0 31 31" fill="none" xmlns="http://www.w3.org/2000/svg">
<path d="M11.3543 28.2917V23.8193C11.3542 22.6818 12.2816 21.7575 13.4306 21.7498H17.6395C18.794 21.7498 19.7299 22.6764 19.7299 23.8193V23.8193V28.3055C19.7296 29.2714 20.5083 30.0607 21.4836 30.0834H24.2895C27.0866 30.0834 29.3542 27.8385 29.3542 25.0694V25.0694V12.3469C29.3392 11.2575 28.8226 10.2345 27.9512 9.56903L18.355 1.91608C16.6739 0.583554 14.284 0.583554 12.6029 1.91608L3.04878 9.58292C2.17412 10.2457 1.6566 11.2704 1.64583 12.3608V25.0694C1.64583 27.8385 3.91335 30.0834 6.71049 30.0834H9.5164C10.5159 30.0834 11.3262 29.2812 11.3262 28.2917V28.2917" stroke="#003E5C" stroke-width="1.5" stroke-linecap="round" stroke-linejoin="round"/>
</svg>
