<svg width="20" height="21" viewBox="0 0 20 21" fill="none" xmlns="http://www.w3.org/2000/svg">
<path d="M0.275 10.5C0.275 5.18978 4.32297 0.825012 9.50149 0.323133C9.44503 0.362358 9.38717 0.403057 9.3284 0.445025C8.78385 0.83389 8.12384 1.35689 7.77675 1.83942C6.87929 3.08712 6.61201 3.91812 6.23321 5.4333C5.84969 6.96739 5.59446 10.036 6.74905 12.6125C8.09124 15.6075 10.3907 16.7586 12.9461 17.2697C14.1451 17.5095 15.5098 17.7188 17.0766 17.2641C17.6544 17.0964 18.3073 16.7471 18.8307 16.4303C16.9765 19.0303 13.936 20.725 10.5 20.725C4.85289 20.725 0.275 16.1471 0.275 10.5Z" stroke="#005781" stroke-width="0.55"/>
</svg>
